# xmcd
#
# Track frame offsets:
#	150
#	19447
#	35943
#	61311
#	85611
#	101554
#	123611
#	143284
#	169321
#	191982
#
# Disc length: 2879 seconds
#
# Revision: 2
# Processed by: cddbd v1.5.2PL0 Copyright (c) Steve Scherf et al.
# Submitted via: EZCDAudioConverter 8.0.2.1
#
DISCID=8d0b3d0a
DTITLE=Tuấn Vũ, Tâm Phương Anh - Nhà Anh Nhà Em
DYEAR=2013
DGENRE=Country
TTITLE0=Tuấn Vũ, Tâm Phương Anh - Tình thắm duyên quê
TTITLE1=Tuấn Vũ - Đời là vạn ngày sầu
TTITLE2=Tâm Phương Anh - Tâm sự đời tôi
TTITLE3=Tuấn Vũ, Tâm Phương Anh - Đêm trao kỷ niệm
TTITLE4=Tâm Phương Anh - Hình ảnh người em không đợi
TTITLE5=Tuấn Vũ - Đêm tâm sự
TTITLE6=Tuấn Vũ, Tâm Phương Anh - Nhà Anh Nhà Em
TTITLE7=Tuấn Vũ - Tình yêu đơn phương
TTITLE8=Tâm Phương Anh - Chuyến đò dang dở
TTITLE9=Tuấn Vũ, Tâm Phương Anh - Đom đóm
EXTD=
EXTT0=
EXTT1=
EXTT2=
EXTT3=
EXTT4=
EXTT5=
EXTT6=
EXTT7=
EXTT8=
EXTT9=
PLAYORDER=
